<svg xmlns="http://www.w3.org/2000/svg" xmlns:xlink="http://www.w3.org/1999/xlink" width="500" zoomAndPan="magnify" viewBox="0 0 375 374.999991" height="500" preserveAspectRatio="xMidYMid meet" version="1.0"><defs><clipPath id="82d397a125"><path d="M 71.476562 92.070312 L 303.226562 92.070312 L 303.226562 269 L 71.476562 269 Z M 71.476562 92.070312 " clip-rule="nonzero"/></clipPath><clipPath id="95bace304a"><path d="M 71.476562 98.820312 L 71.476562 262.097656 C 71.476562 265.828125 74.496094 268.847656 78.226562 268.847656 L 296.773438 268.847656 C 300.503906 268.847656 303.523438 265.828125 303.523438 262.097656 L 303.523438 98.820312 C 303.523438 95.09375 300.503906 92.070312 296.773438 92.070312 L 78.226562 92.070312 C 74.496094 92.070312 71.476562 95.09375 71.476562 98.820312 Z M 71.476562 98.820312 " clip-rule="nonzero"/></clipPath></defs><rect x="-37.5" width="450" fill="#ffffff" y="-37.499999" height="449.999989" fill-opacity="1"/><rect x="-37.5" width="450" fill="#ad9551" y="-37.499999" height="449.999989" fill-opacity="1"/><g clip-path="url(#82d397a125)"><g clip-path="url(#95bace304a)"><path fill="#ffffff" d="M 267.132812 144.5 L 303.472656 165.742188 L 303.472656 139.417969 L 268.511719 139.417969 L 187.496094 92.070312 L 106.488281 139.417969 L 71.523438 139.417969 L 71.523438 165.742188 L 104.882812 146.246094 L 104.882812 268.871094 L 109.964844 268.871094 L 109.964844 143.273438 L 187.496094 97.953125 L 258.4375 139.417969 L 140.289062 139.417969 L 140.289062 268.871094 L 170.882812 268.871094 L 170.882812 214.925781 L 204.128906 214.925781 L 204.128906 268.871094 L 270.582031 268.871094 L 270.582031 164.140625 L 265.503906 164.140625 L 265.503906 263.792969 L 209.203125 263.792969 L 209.203125 209.84375 L 165.796875 209.84375 L 165.796875 263.792969 L 145.363281 263.792969 L 145.363281 144.5 Z M 298.394531 144.5 L 298.394531 156.886719 L 277.195312 144.5 Z M 76.605469 156.886719 L 76.605469 144.5 L 97.804688 144.5 Z M 76.605469 156.886719 " fill-opacity="1" fill-rule="nonzero"/></g></g></svg>